<?xml version="1.0" standalone="no"?>
<!DOCTYPE svg PUBLIC "-//W3C//DTD SVG 20010904//EN"
 "http://www.w3.org/TR/2001/REC-SVG-20010904/DTD/svg10.dtd">
<svg version="1.0" xmlns="http://www.w3.org/2000/svg"
 width="460.000000pt" height="460.000000pt" viewBox="0 0 460.000000 460.000000"
 preserveAspectRatio="xMidYMid meet">
<metadata>
Created by potrace 1.14, written by Peter Selinger 2001-2017
</metadata>
<g transform="translate(0.000000,460.000000) scale(0.100000,-0.100000)"
fill="#000000" stroke="none">
<path d="M2304 3945 c-28 -7 -57 -15 -63 -19 -6 -4 -21 -9 -33 -11 -54 -11
-227 -152 -263 -216 -63 -111 -79 -174 -72 -277 6 -74 8 -88 23 -141 5 -15 3
-22 -3 -18 -6 4 -19 -4 -30 -16 -26 -29 -23 -109 7 -190 20 -53 43 -77 78 -83
20 -4 22 -7 38 -69 9 -32 24 -70 35 -85 24 -31 38 -88 39 -147 0 -42 -7 -49
-42 -44 -13 1 -61 -64 -85 -116 -30 -66 -24 -62 -366 -228 -76 -37 -147 -74
-156 -83 -10 -10 -65 -57 -123 -105 -57 -49 -121 -110 -141 -137 -32 -42 -38
-59 -42 -117 -6 -69 -28 -224 -46 -323 -6 -30 -12 -66 -14 -80 -5 -26 -17 -71
-54 -195 -12 -38 -24 -81 -27 -95 -2 -14 -7 -32 -9 -40 -2 -8 -7 -31 -10 -50
-3 -19 -10 -48 -15 -65 -5 -16 -11 -46 -14 -65 -3 -19 -19 -75 -36 -125 -17
-49 -33 -97 -35 -105 -2 -8 -13 -42 -25 -75 -11 -33 -23 -93 -25 -133 -2 -41
-6 -81 -9 -90 -3 -9 -7 -45 -10 -79 -3 -34 -13 -83 -21 -108 -17 -48 -55 -193
-55 -207 0 -4 709 -8 1576 -8 l1575 0 -6 37 c-12 67 -14 145 -4 171 10 26 6
43 -27 119 -8 17 -14 37 -14 45 -1 7 -7 30 -14 51 -11 31 -12 47 -1 85 7 27
11 77 9 112 -3 52 -11 76 -42 129 -72 123 -135 284 -156 398 -3 15 -26 87 -51
158 -25 72 -55 162 -66 200 -11 39 -26 93 -34 120 -9 28 -24 90 -35 138 -11
48 -23 93 -26 100 -28 48 -98 148 -109 154 -12 7 -124 105 -165 143 -23 22
-98 70 -110 70 -5 0 -10 5 -10 10 0 6 -5 10 -10 10 -6 0 -41 20 -78 43 -37 24
-85 55 -107 69 -29 18 -50 45 -79 99 -21 41 -45 81 -52 90 -8 8 -14 21 -14 27
0 6 -13 18 -30 27 -44 23 -42 69 6 126 46 55 57 78 84 169 12 41 27 86 35 101
8 14 16 45 19 70 3 24 9 67 14 94 8 53 6 85 -7 85 -14 0 -11 88 4 117 21 39
20 151 -1 174 -9 10 -19 37 -21 60 -6 46 -44 118 -101 186 -61 73 -176 140
-287 167 -5 1 -33 -3 -61 -9z"/>
</g>
</svg>
